<svg width="656" height="370" viewBox="0 0 656 370" fill="none" xmlns="http://www.w3.org/2000/svg">
<g opacity="0.5">
<path opacity="0.7" d="M11.4382 238.389L46.8122 247.595L29.9171 260.297L11.4382 238.389Z" fill="#2E6280"/>
<path opacity="0.7" d="M20.472 230.851L46.5617 247.487L29.8739 260.33L20.472 230.851Z" fill="#BC0F1E"/>
</g>
<g opacity="0.5">
<path opacity="0.7" d="M106.345 219.368L143.24 231.864L119.586 247.482L106.345 219.368Z" fill="#2E6280"/>
<path opacity="0.7" d="M108.167 215.601L134.696 235.831L116.352 247.944L108.167 215.601Z" fill="#BC0F1E"/>
</g>
<g opacity="0.5">
<path opacity="0.7" d="M70.9022 246.683L101.077 266.799L73.5976 274.304L70.9022 246.683Z" fill="#2E6280"/>
<path opacity="0.7" d="M73.816 242.052L101.195 266.738L78.1138 278.665L73.816 242.052Z" fill="#BC0F1E"/>
</g>
<g opacity="0.5">
<path opacity="0.7" d="M47.4121 101.517L77.5864 121.633L50.1075 129.138L47.4121 101.517Z" fill="#2E6280"/>
<path opacity="0.7" d="M50.3259 96.8862L77.7048 121.572L54.6237 133.499L50.3259 96.8862Z" fill="#BC0F1E"/>
</g>
<g opacity="0.5">
<path opacity="0.7" d="M43.3514 300.854L78.7254 310.061L61.8303 322.763L43.3514 300.854Z" fill="#2E6280"/>
<path opacity="0.7" d="M52.3852 293.317L78.4749 309.953L61.7871 322.796L52.3852 293.317Z" fill="#BC0F1E"/>
</g>
<g opacity="0.5">
<path opacity="0.7" d="M138.258 281.833L175.153 294.329L151.499 309.948L138.258 281.833Z" fill="#2E6280"/>
<path opacity="0.7" d="M140.08 278.066L166.61 298.296L148.265 310.409L140.08 278.066Z" fill="#BC0F1E"/>
</g>
<g opacity="0.5">
<path opacity="0.7" d="M102.815 309.148L132.99 329.265L105.511 336.769L102.815 309.148Z" fill="#2E6280"/>
<path opacity="0.7" d="M105.729 304.518L133.108 329.204L110.027 341.131L105.729 304.518Z" fill="#BC0F1E"/>
</g>
<g opacity="0.5">
<path opacity="0.7" d="M178.86 215.723L214.234 224.929L197.339 237.631L178.86 215.723Z" fill="#2E6280"/>
<path opacity="0.7" d="M187.894 208.185L213.984 224.821L197.296 237.664L187.894 208.185Z" fill="#BC0F1E"/>
</g>
<g opacity="0.5">
<path opacity="0.7" d="M86.4382 160.159L121.812 169.365L104.917 182.067L86.4382 160.159Z" fill="#2E6280"/>
<path opacity="0.7" d="M95.472 152.621L121.562 169.257L104.874 182.1L95.472 152.621Z" fill="#BC0F1E"/>
</g>
<g opacity="0.5">
<path opacity="0.7" d="M181.345 141.138L218.24 153.634L194.586 169.253L181.345 141.138Z" fill="#2E6280"/>
<path opacity="0.7" d="M183.167 137.371L209.696 157.601L191.352 169.714L183.167 137.371Z" fill="#BC0F1E"/>
</g>
<g opacity="0.5">
<path opacity="0.7" d="M145.902 168.453L176.077 188.57L148.598 196.074L145.902 168.453Z" fill="#2E6280"/>
<path opacity="0.7" d="M148.816 163.823L176.195 188.508L153.114 200.436L148.816 163.823Z" fill="#BC0F1E"/>
</g>
<g opacity="0.5">
<path opacity="0.7" d="M253.86 137.493L289.234 146.7L272.339 159.402L253.86 137.493Z" fill="#2E6280"/>
<path opacity="0.7" d="M262.894 129.955L288.984 146.591L272.296 159.435L262.894 129.955Z" fill="#BC0F1E"/>
</g>
<g opacity="0.5">
<path opacity="0.7" d="M20.4382 171.493L55.8122 180.7L38.9171 193.402L20.4382 171.493Z" fill="#2E6280"/>
<path opacity="0.7" d="M29.472 163.955L55.5617 180.591L38.8739 193.435L29.472 163.955Z" fill="#BC0F1E"/>
</g>
<g opacity="0.5">
<path opacity="0.7" d="M116.28 112.702L153.175 125.198L129.521 140.817L116.28 112.702Z" fill="#2E6280"/>
<path opacity="0.7" d="M118.102 108.935L144.631 129.165L126.287 141.278L118.102 108.935Z" fill="#BC0F1E"/>
</g>
<g opacity="0.5">
<path opacity="0.7" d="M183.412 334.517L213.586 354.633L186.108 362.138L183.412 334.517Z" fill="#2E6280"/>
<path opacity="0.7" d="M186.326 329.886L213.705 354.572L190.624 366.499L186.326 329.886Z" fill="#BC0F1E"/>
</g>
<g opacity="0.5">
<path opacity="0.7" d="M226.438 180.493L261.812 189.7L244.917 202.402L226.438 180.493Z" fill="#2E6280"/>
<path opacity="0.7" d="M235.472 172.955L261.562 189.591L244.874 202.435L235.472 172.955Z" fill="#BC0F1E"/>
</g>
<g opacity="0.5">
<path opacity="0.7" d="M310.28 21.138L347.175 33.634L323.521 49.2527L310.28 21.138Z" fill="#2E6280"/>
<path opacity="0.7" d="M312.102 17.3711L338.631 37.6011L320.287 49.7141L312.102 17.3711Z" fill="#BC0F1E"/>
</g>
<g opacity="0.5">
<path opacity="0.7" d="M382.795 17.493L418.169 26.6997L401.274 39.4015L382.795 17.493Z" fill="#2E6280"/>
<path opacity="0.7" d="M391.829 9.95527L417.919 26.5914L401.231 39.4347L391.829 9.95527Z" fill="#BC0F1E"/>
</g>
<g opacity="0.5">
<path opacity="0.7" d="M355.373 60.493L390.747 69.6997L373.852 82.4015L355.373 60.493Z" fill="#2E6280"/>
<path opacity="0.7" d="M364.407 52.9553L390.497 69.5914L373.809 82.4347L364.407 52.9553Z" fill="#BC0F1E"/>
</g>
<g opacity="0.5">
<path opacity="0.7" d="M273.767 196.702L310.662 209.198L287.008 224.817L273.767 196.702Z" fill="#2E6280"/>
<path opacity="0.7" d="M275.589 192.935L302.118 213.165L283.774 225.278L275.589 192.935Z" fill="#BC0F1E"/>
</g>
<g opacity="0.5">
<path opacity="0.7" d="M238.324 224.017L268.499 244.133L241.02 251.638L238.324 224.017Z" fill="#2E6280"/>
<path opacity="0.7" d="M241.238 219.386L268.617 244.072L245.536 255.999L241.238 219.386Z" fill="#BC0F1E"/>
</g>
<g opacity="0.5">
<path opacity="0.7" d="M324.412 165.517L354.586 185.633L327.108 193.138L324.412 165.517Z" fill="#2E6280"/>
<path opacity="0.7" d="M327.326 160.886L354.705 185.572L331.624 197.499L327.326 160.886Z" fill="#BC0F1E"/>
</g>
<g opacity="0.5">
<path opacity="0.7" d="M379.28 264.138L416.175 276.634L392.521 292.253L379.28 264.138Z" fill="#2E6280"/>
<path opacity="0.7" d="M381.102 260.371L407.631 280.601L389.287 292.714L381.102 260.371Z" fill="#BC0F1E"/>
</g>
<g opacity="0.5">
<path opacity="0.7" d="M451.795 260.493L487.169 269.7L470.274 282.402L451.795 260.493Z" fill="#2E6280"/>
<path opacity="0.7" d="M460.829 252.955L486.919 269.591L470.231 282.435L460.829 252.955Z" fill="#BC0F1E"/>
</g>
<g opacity="0.5">
<path opacity="0.7" d="M393.28 176.702L430.175 189.198L406.521 204.817L393.28 176.702Z" fill="#2E6280"/>
<path opacity="0.7" d="M395.102 172.935L421.631 193.165L403.287 205.278L395.102 172.935Z" fill="#BC0F1E"/>
</g>
<g opacity="0.5">
<path opacity="0.7" d="M352.438 329.493L387.812 338.7L370.917 351.402L352.438 329.493Z" fill="#2E6280"/>
<path opacity="0.7" d="M361.472 321.955L387.562 338.591L370.874 351.435L361.472 321.955Z" fill="#BC0F1E"/>
</g>
<g opacity="0.5">
<path opacity="0.7" d="M471.702 319.702L508.597 332.198L484.943 347.817L471.702 319.702Z" fill="#2E6280"/>
<path opacity="0.7" d="M473.524 315.935L500.053 336.165L481.709 348.278L473.524 315.935Z" fill="#BC0F1E"/>
</g>
<g opacity="0.5">
<path opacity="0.7" d="M436.259 347.017L466.434 367.133L438.955 374.638L436.259 347.017Z" fill="#2E6280"/>
<path opacity="0.7" d="M439.173 342.386L466.552 367.072L443.471 378.999L439.173 342.386Z" fill="#BC0F1E"/>
</g>
<g opacity="0.5">
<path opacity="0.7" d="M206.022 294.667L241.396 303.874L224.501 316.576L206.022 294.667Z" fill="#2E6280"/>
<path opacity="0.7" d="M215.056 287.13L241.145 303.766L224.458 316.609L215.056 287.13Z" fill="#BC0F1E"/>
</g>
<g opacity="0.5">
<path opacity="0.7" d="M300.929 275.646L337.824 288.142L314.17 303.761L300.929 275.646Z" fill="#2E6280"/>
<path opacity="0.7" d="M302.751 271.879L329.28 292.109L310.936 304.222L302.751 271.879Z" fill="#BC0F1E"/>
</g>
<g opacity="0.5">
<path opacity="0.7" d="M540.631 175.138L577.526 187.634L553.873 203.253L540.631 175.138Z" fill="#2E6280"/>
<path opacity="0.7" d="M542.453 171.371L568.983 191.601L550.638 203.714L542.453 171.371Z" fill="#BC0F1E"/>
</g>
<g opacity="0.5">
<path opacity="0.7" d="M613.147 171.493L648.521 180.7L631.625 193.402L613.147 171.493Z" fill="#2E6280"/>
<path opacity="0.7" d="M622.18 163.955L648.27 180.591L631.582 193.435L622.18 163.955Z" fill="#BC0F1E"/>
</g>
<g opacity="0.5">
<path opacity="0.7" d="M554.631 87.702L591.526 100.198L567.873 115.817L554.631 87.702Z" fill="#2E6280"/>
<path opacity="0.7" d="M556.453 83.935L582.983 104.165L564.638 116.278L556.453 83.935Z" fill="#BC0F1E"/>
</g>
<g opacity="0.5">
<path opacity="0.7" d="M462.28 186.646L499.175 199.142L475.521 214.761L462.28 186.646Z" fill="#2E6280"/>
<path opacity="0.7" d="M464.102 182.879L490.631 203.109L472.287 215.222L464.102 182.879Z" fill="#BC0F1E"/>
</g>
<g opacity="0.5">
<path opacity="0.7" d="M265.486 302.961L295.66 323.078L268.182 330.582L265.486 302.961Z" fill="#2E6280"/>
<path opacity="0.7" d="M268.4 298.331L295.779 323.016L272.698 334.944L268.4 298.331Z" fill="#BC0F1E"/>
</g>
<g opacity="0.5">
<path opacity="0.7" d="M10.4121 332.517L40.5864 352.633L13.1075 360.138L10.4121 332.517Z" fill="#2E6280"/>
<path opacity="0.7" d="M13.3259 327.886L40.7048 352.572L17.6237 364.499L13.3259 327.886Z" fill="#BC0F1E"/>
</g>
</svg>
